<svg width="21" height="21" viewBox="0 0 21 21" fill="none" xmlns="http://www.w3.org/2000/svg">
<path fill-rule="evenodd" clip-rule="evenodd" d="M7.21416 13.127C7.57575 13.127 7.86811 13.42 7.86811 13.7809C7.86811 14.1419 7.57542 14.4345 7.21416 14.4345C6.85322 14.4345 6.56053 14.1419 6.56053 13.7809C6.56053 13.42 6.85355 13.127 7.21416 13.127ZM5.29758 11.2544C4.88381 8.38359 6.87586 5.72152 9.74662 5.30775C12.6174 4.89398 15.2798 6.88603 15.6936 9.7568C16.1073 12.6276 14.1153 15.29 11.2445 15.7037C11.2124 15.7087 11.1815 15.7087 11.1497 15.7123L11.2468 15.6988C10.8878 15.7503 10.5558 15.5013 10.5036 15.1426C10.4521 14.784 10.7011 14.451 11.0598 14.3988L11.0588 14.3965C11.0598 14.3965 11.0604 14.3965 11.0614 14.3965C13.2139 14.0864 14.7066 12.0904 14.3965 9.93792C14.0864 7.78509 12.0907 6.29245 9.93792 6.60253C7.78641 6.91261 6.29245 8.90859 6.60286 11.0611C6.60286 11.0621 6.60286 11.0627 6.60352 11.0627L6.60122 11.0637C6.65273 11.4224 6.40369 11.7547 6.04505 11.8066C5.68641 11.8581 5.35336 11.6094 5.30119 11.2507L5.31563 11.3485C5.31103 11.3164 5.30217 11.2862 5.29758 11.2544ZM15.7464 4.26727C15.7464 3.72323 16.188 3.28158 16.7327 3.28158C17.2715 3.28158 17.7083 3.71405 17.7168 4.25217V4.28302C17.7083 4.82114 17.2715 5.25361 16.7327 5.25361C16.188 5.25361 15.7464 4.81195 15.7464 4.26727ZM19.2481 19.2019C18.1069 20.3549 16.5234 21 13.7852 21H7.21416C4.47595 21 2.89275 20.3549 1.75219 19.2019C0.626063 18.0646 0 16.4771 0 13.7858V7.21481C0 4.52255 0.626063 2.93606 1.75219 1.79878C2.89275 0.645422 4.47595 0 7.21416 0H13.7849C16.5234 0 18.1066 0.645422 19.2478 1.79878C19.321 1.87195 19.3879 1.95234 19.4555 2.03175C19.594 2.15184 19.6836 2.32772 19.6836 2.52558C19.6836 2.88816 19.3899 3.18183 19.0273 3.18183C18.8291 3.18183 18.6532 3.09192 18.5332 2.9528L18.5246 2.95969C18.457 2.8793 18.3937 2.79595 18.3189 2.72081C17.3207 1.7115 15.8471 1.31545 13.4505 1.31545H7.54589C5.14992 1.31545 3.67927 1.7115 2.68111 2.72081C1.69575 3.71602 1.3125 5.19356 1.3125 7.54852V13.4538C1.3125 15.8097 1.69575 17.2833 2.68111 18.2782C3.67927 19.2872 5.14992 19.6875 7.54589 19.6875H13.4512C15.8478 19.6875 17.3214 19.2872 18.3195 18.2782C19.3049 17.2833 19.6842 15.8097 19.6842 13.4538V7.54884C19.6842 6.97528 19.6606 6.4552 19.6127 5.98041L19.6156 5.97975C19.5802 5.61783 19.8424 5.2943 20.205 5.25591C20.5682 5.2185 20.894 5.48231 20.9311 5.84489C20.9321 5.85441 20.9311 5.86327 20.9311 5.87278H20.9327C20.9724 6.29081 21 6.72886 21 7.21481V13.7855C21 16.4771 20.3733 18.0646 19.2481 19.2019Z" fill="white"/>
</svg>
