<svg width="21" height="21" viewBox="0 0 21 21" fill="none" xmlns="http://www.w3.org/2000/svg">
<path fill-rule="evenodd" clip-rule="evenodd" d="M20.9055 4.36078L18.1387 17.6846C17.8382 19.1615 16.84 19.6875 16.0056 19.6875C15.5751 19.6875 15.1282 19.5585 14.676 19.3033L14.6009 19.2603L14.5307 19.2078L8.77734 14.8647L8.5611 17.4028C8.44823 17.9957 7.90879 18.4216 7.29487 18.3711C6.82302 18.332 6.44043 18.0233 6.28063 17.6098L5.32054 14.7272C5.27657 14.6386 5.24999 14.5415 5.24999 14.4375C5.24999 14.0749 5.54366 13.7812 5.90624 13.7812C6.1927 13.7812 6.43288 13.965 6.52279 14.2203C6.52345 14.2203 6.52443 14.2196 6.52509 14.2186L7.31324 16.5861L7.42874 15.2312C7.42874 15.2296 7.42874 15.2296 7.42874 15.2289C7.50027 14.361 8.26152 13.7153 9.12941 13.7865C9.41587 13.8095 9.67607 13.9115 9.89559 14.0644L15.3211 18.1601C15.5738 18.3025 15.8035 18.3747 16.0056 18.3747C16.4246 18.3747 16.7222 18.063 16.8525 17.4228L19.6245 4.074C19.8509 3.14869 19.4411 2.625 18.8895 2.625C18.7487 2.625 18.5991 2.65913 18.4472 2.72902L2.17087 9.14288C1.05951 9.59864 1.06607 10.2316 1.96809 10.5135L4.65838 11.3718C4.65904 11.3718 4.66166 11.3702 4.66232 11.3708C4.84673 11.4283 5.05443 11.4082 5.23096 11.2977C5.23424 11.296 5.23654 11.2967 5.23949 11.295L12.4379 6.75872C13.0479 6.38269 13.8492 6.5648 14.2341 7.17248C14.5612 7.68862 14.4805 8.34422 14.0805 8.77045L10.3077 12.5429V12.5436L10.2975 12.5531L10.2969 12.5524C10.1791 12.6653 10.0199 12.7355 9.8444 12.7355C9.48182 12.7355 9.18815 12.4418 9.18815 12.0793C9.18815 11.9034 9.25804 11.7442 9.37124 11.6265L9.37059 11.6258L13.1092 7.88648L5.91116 12.4225C5.39732 12.7342 4.79685 12.79 4.26299 12.6207C4.25905 12.619 4.25512 12.6207 4.25085 12.619L1.57663 11.7662C0.167336 11.3256 0.0150859 10.3041 0.00163279 10.0019C-0.0196953 9.49266 0.167664 8.54569 1.67277 7.92816L1.68065 7.92488L1.68918 7.92159L17.9363 1.51987C18.247 1.38239 18.5676 1.3125 18.8895 1.3125C19.5323 1.3125 20.1252 1.59797 20.5163 2.09705C20.9757 2.68078 21.1132 3.48403 20.9055 4.36078ZM9.84374 16.4062C10.2063 16.4062 10.5 16.6999 10.5 17.0625C10.5 17.4251 10.2063 17.7188 9.84374 17.7188C9.48116 17.7188 9.18749 17.4251 9.18749 17.0625C9.18749 16.6999 9.48116 16.4062 9.84374 16.4062Z" fill="white"/>
</svg>
